<svg width="769" height="257" viewBox="0 0 769 257" fill="none" xmlns="http://www.w3.org/2000/svg">
<path d="M378.03 99.3101V27.0901H395.54V53.8601H424.66V27.0901H442.17V99.3101H424.66V69.4901H395.54V99.3101H378.03Z" fill="white"/>
<path d="M476.3 99.3101V69.1301L450.4 27.0901H470.08L485.43 52.7301L500.62 27.0901H519.77L493.87 69.2901V99.3101H476.3Z" fill="white"/>
<path d="M527.99 99.3101V27.0901H556.58C564.1 27.0901 570.12 28.6301 574.62 31.7101C579.12 34.7901 581.37 39.3501 581.37 45.4101C581.37 47.6101 580.91 49.6401 580 51.5001C579.09 53.3601 577.85 55.0001 576.28 56.4301C574.71 57.8601 572.96 59.0001 571.03 59.8601C575 61.2401 578.21 63.5201 580.66 66.7201C583.1 69.9201 584.33 73.7201 584.33 78.1201C584.33 82.5201 583.23 86.1501 581.03 89.3101C578.83 92.4701 575.71 94.9301 571.67 96.6901C567.63 98.4401 562.83 99.3201 557.27 99.3201H527.99V99.3101ZM545.51 56.7001H554.21C556.32 56.7001 558.13 56.3601 559.64 55.6701C561.15 54.9801 562.33 53.9901 563.17 52.6801C564.01 51.3701 564.44 49.8101 564.44 47.9901C564.44 45.3401 563.53 43.3101 561.72 41.8801C559.91 40.4501 557.31 39.7401 553.94 39.7401H545.5V56.7101L545.51 56.7001ZM545.51 86.6701H554.74C558.54 86.6701 561.39 85.9101 563.28 84.4001C565.18 82.8901 566.13 80.6201 566.13 77.5901C566.13 74.5601 565.22 72.4601 563.39 70.8601C561.56 69.2601 558.87 68.4601 555.32 68.4601H545.51V86.6701Z" fill="white"/>
<path d="M597.41 99.3101V27.0901H627.37C632.86 27.0901 637.65 27.9701 641.74 29.7201C645.84 31.4701 649 33.9901 651.24 37.2801C653.47 40.5601 654.59 44.5301 654.59 49.1701C654.59 52.7101 653.9 55.8201 652.53 58.5101C651.16 61.1901 649.28 63.4401 646.89 65.2401C644.5 67.0501 641.79 68.3801 638.77 69.2401L658.66 99.3101H637.88L621.42 72.7401H614.93V99.3101H597.42H597.41ZM614.92 59.0201H625.26C628.92 59.0201 631.77 58.3201 633.83 56.9101C635.89 55.5001 636.92 53.2801 636.92 50.2601C636.92 47.2401 635.94 44.8401 633.99 43.3701C632.04 41.9101 629.25 41.1801 625.63 41.1801H614.92V59.0301V59.0201Z" fill="white"/>
<path d="M669.88 99.3101V27.0901H687.39V99.3101H669.88Z" fill="white"/>
<path d="M704.8 99.3101V27.0901H730.12C737.79 27.0901 744.51 28.6201 750.3 31.6801C756.08 34.7401 760.59 38.9801 763.83 44.4001C767.06 49.8201 768.68 56.0801 768.68 63.2001C768.68 68.5701 767.76 73.4701 765.91 77.9001C764.06 82.3401 761.43 86.1501 758.02 89.3301C754.61 92.5101 750.55 94.9701 745.84 96.7101C741.13 98.4501 735.89 99.3201 730.12 99.3201H704.8V99.3101ZM722.32 83.3701H729.23C732.39 83.3701 735.26 82.9401 737.83 82.0801C740.4 81.2201 742.62 79.9301 744.5 78.2101C746.38 76.4901 747.82 74.3801 748.83 71.8701C749.83 69.3601 750.33 66.4701 750.33 63.2001C750.33 58.8301 749.45 55.1501 747.69 52.1601C745.93 49.1701 743.46 46.9001 740.28 45.3501C737.1 43.8001 733.41 43.0301 729.23 43.0301H722.32V83.3701Z" fill="white"/>
<path d="M382.3 228.69V210.96H376.57V208.97H390.18V210.96H384.45V228.69H382.31H382.3Z" fill="white"/>
<path d="M401.74 229.11C400.28 229.11 398.93 228.85 397.68 228.33C396.43 227.81 395.33 227.08 394.4 226.15C393.47 225.22 392.75 224.13 392.23 222.88C391.71 221.63 391.45 220.28 391.45 218.82C391.45 217.36 391.71 216 392.23 214.75C392.75 213.5 393.47 212.41 394.4 211.48C395.33 210.55 396.42 209.83 397.68 209.31C398.93 208.79 400.29 208.53 401.74 208.53C403.19 208.53 404.53 208.79 405.78 209.32C407.03 209.85 408.12 210.58 409.05 211.52C409.98 212.46 410.71 213.55 411.23 214.8C411.75 216.04 412.01 217.38 412.01 218.82C412.01 220.26 411.75 221.63 411.23 222.88C410.71 224.13 409.98 225.22 409.05 226.15C408.12 227.08 407.03 227.81 405.78 228.33C404.53 228.85 403.18 229.11 401.74 229.11ZM401.74 227.07C402.86 227.07 403.9 226.88 404.88 226.49C405.86 226.1 406.71 225.54 407.44 224.81C408.17 224.08 408.75 223.21 409.16 222.21C409.57 221.2 409.78 220.07 409.78 218.84C409.78 217.19 409.42 215.74 408.7 214.51C407.98 213.27 407.01 212.31 405.8 211.63C404.58 210.95 403.23 210.6 401.74 210.6C400.62 210.6 399.58 210.8 398.6 211.18C397.62 211.57 396.77 212.13 396.04 212.86C395.31 213.59 394.73 214.45 394.31 215.46C393.89 216.46 393.68 217.59 393.68 218.84C393.68 220.49 394.04 221.94 394.76 223.17C395.48 224.4 396.45 225.36 397.67 226.05C398.89 226.74 400.24 227.08 401.73 227.08L401.74 227.07Z" fill="white"/>
<path d="M419.77 228.69V220L412.77 208.97H415.29L420.9 217.9L426.46 208.97H428.91L421.91 220V228.69H419.77Z" fill="white"/>
<path d="M439.94 229.11C438.48 229.11 437.13 228.85 435.88 228.33C434.63 227.81 433.53 227.08 432.6 226.15C431.67 225.22 430.95 224.13 430.43 222.88C429.91 221.63 429.65 220.28 429.65 218.82C429.65 217.36 429.91 216 430.43 214.75C430.95 213.5 431.67 212.41 432.6 211.48C433.53 210.55 434.62 209.83 435.88 209.31C437.13 208.79 438.49 208.53 439.94 208.53C441.39 208.53 442.73 208.79 443.98 209.32C445.23 209.85 446.32 210.58 447.25 211.52C448.18 212.46 448.91 213.55 449.43 214.8C449.95 216.04 450.21 217.38 450.21 218.82C450.21 220.26 449.95 221.63 449.43 222.88C448.91 224.13 448.18 225.22 447.25 226.15C446.32 227.08 445.23 227.81 443.98 228.33C442.73 228.85 441.38 229.11 439.94 229.11ZM439.94 227.07C441.06 227.07 442.1 226.88 443.08 226.49C444.06 226.1 444.91 225.54 445.64 224.81C446.37 224.08 446.95 223.21 447.36 222.21C447.77 221.2 447.98 220.07 447.98 218.84C447.98 217.19 447.62 215.74 446.9 214.51C446.18 213.27 445.21 212.31 444 211.63C442.78 210.95 441.43 210.6 439.94 210.6C438.82 210.6 437.78 210.8 436.8 211.18C435.82 211.57 434.97 212.13 434.24 212.86C433.51 213.59 432.93 214.45 432.51 215.46C432.09 216.46 431.88 217.59 431.88 218.84C431.88 220.49 432.24 221.94 432.96 223.17C433.68 224.4 434.65 225.36 435.87 226.05C437.09 226.74 438.44 227.08 439.93 227.08L439.94 227.07Z" fill="white"/>
<path d="M457.23 228.69V210.96H451.5V208.97H465.11V210.96H459.38V228.69H457.24H457.23Z" fill="white"/>
<path d="M465.19 228.69L473.04 208.97H475.12L483.26 228.69H480.85L478.74 223.52H469.54L467.53 228.69H465.19ZM470.2 221.59H478.05L474.02 211.83L470.2 221.59Z" fill="white"/>
<path d="M493.61 228.69V208.97H495.75V217.15H506.48V208.97H508.62V228.69H506.48V219.14H495.75V228.69H493.61Z" fill="white"/>
<path d="M518.74 228.69V220L511.74 208.97H514.26L519.87 217.9L525.43 208.97H527.88L520.88 220V228.69H518.74Z" fill="white"/>
<path d="M531 228.69V208.97H537.18C538.99 208.97 540.47 209.39 541.6 210.23C542.74 211.07 543.3 212.31 543.3 213.94C543.3 214.58 543.13 215.19 542.81 215.78C542.48 216.37 542.07 216.89 541.57 217.33C541.07 217.77 540.57 218.08 540.05 218.25C541.14 218.56 542.06 219.15 542.82 220.02C543.58 220.89 543.95 221.99 543.95 223.31C543.95 224.33 543.69 225.25 543.17 226.06C542.65 226.87 541.92 227.51 540.97 227.98C540.02 228.45 538.89 228.68 537.58 228.68H530.99L531 228.69ZM533.14 217.62H536.79C537.68 217.62 538.46 217.48 539.11 217.2C539.77 216.92 540.28 216.51 540.65 215.98C541.02 215.45 541.2 214.82 541.2 214.09C541.2 213.03 540.81 212.22 540.05 211.66C539.28 211.1 538.18 210.82 536.77 210.82H533.15V217.62H533.14ZM533.14 226.84H537.14C538.71 226.84 539.87 226.54 540.64 225.94C541.41 225.34 541.79 224.41 541.79 223.16C541.79 221.91 541.4 221.01 540.61 220.37C539.83 219.73 538.61 219.41 536.95 219.41H533.13V226.83L533.14 226.84Z" fill="white"/>
<path d="M548.41 228.69V208.97H555.5C556.79 208.97 557.92 209.21 558.86 209.67C559.8 210.14 560.53 210.8 561.04 211.66C561.55 212.52 561.81 213.53 561.81 214.68C561.81 215.68 561.58 216.55 561.13 217.31C560.68 218.07 560.04 218.69 559.22 219.16C558.4 219.63 557.43 219.94 556.31 220.08L562.69 228.67H560.03L553.87 220.26H550.54V228.67H548.4L548.41 228.69ZM550.55 218.38H555C556.47 218.38 557.62 218.06 558.43 217.41C559.24 216.76 559.65 215.87 559.65 214.75C559.65 213.63 559.29 212.64 558.58 211.94C557.87 211.24 556.77 210.89 555.3 210.89H550.55V218.38Z" fill="white"/>
<path d="M566.7 228.69V208.97H568.84V228.69H566.7Z" fill="white"/>
<path d="M574.31 228.69V208.97H580.09C581.99 208.97 583.67 209.39 585.15 210.24C586.62 211.09 587.78 212.25 588.62 213.73C589.46 215.21 589.88 216.92 589.88 218.86C589.88 220.29 589.64 221.6 589.16 222.8C588.68 224 588 225.04 587.12 225.92C586.24 226.8 585.21 227.48 584.01 227.96C582.82 228.44 581.51 228.69 580.08 228.69H574.3H574.31ZM576.45 226.69H579.61C580.82 226.69 581.92 226.51 582.91 226.14C583.9 225.77 584.74 225.25 585.45 224.56C586.16 223.87 586.7 223.04 587.08 222.08C587.46 221.12 587.65 220.04 587.65 218.86C587.65 217.25 587.32 215.86 586.66 214.68C586 213.5 585.06 212.59 583.86 211.94C582.65 211.29 581.24 210.97 579.61 210.97H576.45V226.69Z" fill="white"/>
<path d="M607.4 229.11C606.12 229.11 604.87 228.93 603.65 228.58C602.43 228.23 601.4 227.72 600.57 227.05L601.68 225.34C602.18 225.74 602.73 226.07 603.35 226.34C603.97 226.61 604.62 226.82 605.31 226.96C606 227.1 606.71 227.17 607.43 227.17C608.93 227.17 610.14 226.87 611.05 226.28C611.96 225.69 612.42 224.81 612.42 223.65C612.42 222.81 612.12 222.11 611.52 221.52C610.92 220.94 609.8 220.41 608.17 219.93L605.92 219.27C604.16 218.75 602.88 218.08 602.06 217.25C601.24 216.42 600.84 215.38 600.84 214.11C600.84 213.26 601.01 212.49 601.35 211.8C601.69 211.11 602.16 210.53 602.78 210.04C603.4 209.55 604.12 209.18 604.97 208.92C605.81 208.66 606.74 208.53 607.76 208.53C608.98 208.53 610.11 208.71 611.15 209.07C612.19 209.43 613.07 209.9 613.77 210.48L612.61 212.11C612.18 211.76 611.69 211.46 611.14 211.21C610.59 210.96 610.01 210.76 609.39 210.63C608.77 210.5 608.14 210.43 607.5 210.43C606.59 210.43 605.78 210.57 605.08 210.84C604.38 211.11 603.83 211.51 603.44 212.04C603.05 212.57 602.85 213.21 602.85 213.98C602.85 214.51 602.97 214.99 603.22 215.4C603.47 215.81 603.9 216.18 604.51 216.51C605.12 216.84 605.97 217.17 607.06 217.49L609.48 218.21C611.18 218.71 612.43 219.37 613.24 220.2C614.05 221.03 614.45 222.12 614.45 223.46C614.45 224.58 614.18 225.56 613.64 226.4C613.1 227.25 612.3 227.9 611.25 228.38C610.2 228.85 608.92 229.09 607.4 229.09V229.11Z" fill="white"/>
<path d="M618.78 228.69V208.97H625.4C626.76 208.97 627.96 209.2 628.99 209.66C630.02 210.12 630.82 210.78 631.41 211.65C631.99 212.51 632.28 213.55 632.28 214.76C632.28 215.97 632.01 217.05 631.48 217.89C630.95 218.74 630.16 219.39 629.13 219.83C628.1 220.27 626.85 220.49 625.36 220.49H620.92V228.69H618.78ZM620.92 218.56H625.51C626.97 218.56 628.11 218.25 628.92 217.62C629.73 216.99 630.13 216.06 630.13 214.82C630.13 213.58 629.72 212.66 628.9 211.96C628.08 211.27 626.96 210.92 625.54 210.92H620.92V218.57V218.56Z" fill="white"/>
<path d="M636.19 228.69V208.97H648.18V210.91H638.33V217.35H646.99V219.24H638.33V226.73H648.26V228.69H636.19Z" fill="white"/>
<path d="M661.89 229.11C659.85 229.11 658.07 228.68 656.56 227.83C655.04 226.98 653.87 225.78 653.03 224.23C652.19 222.69 651.78 220.88 651.78 218.81C651.78 217.32 652.03 215.95 652.53 214.7C653.03 213.46 653.73 212.37 654.63 211.45C655.54 210.52 656.61 209.81 657.84 209.3C659.07 208.79 660.43 208.54 661.9 208.54C663.37 208.54 664.54 208.72 665.62 209.07C666.7 209.42 667.62 209.92 668.4 210.56L667.22 212.31C666.55 211.73 665.79 211.3 664.92 211.02C664.06 210.74 663.11 210.6 662.08 210.6C660.86 210.6 659.75 210.79 658.76 211.17C657.77 211.55 656.92 212.1 656.21 212.81C655.5 213.52 654.96 214.39 654.57 215.39C654.19 216.4 654 217.53 654 218.79C654 220.54 654.34 222.02 655.01 223.25C655.69 224.48 656.64 225.41 657.88 226.06C659.11 226.71 660.57 227.03 662.24 227.03C663.3 227.03 664.31 226.87 665.27 226.56C666.23 226.25 667.13 225.73 667.97 225L668.98 226.83C668 227.6 666.93 228.17 665.75 228.54C664.57 228.91 663.28 229.1 661.88 229.1L661.89 229.11Z" fill="white"/>
<path d="M672.64 228.69V208.97H674.78V228.69H672.64Z" fill="white"/>
<path d="M677.95 228.69L685.8 208.97H687.88L696.02 228.69H693.61L691.5 223.52H682.3L680.29 228.69H677.95ZM682.96 221.59H690.81L686.78 211.83L682.96 221.59Z" fill="white"/>
<path d="M699.19 228.69V208.97H701.33V226.7H710.37V228.69H699.19Z" fill="white"/>
<path d="M714.19 228.69V208.97H716.33V228.69H714.19Z" fill="white"/>
<path d="M727.9 229.11C726.62 229.11 725.37 228.93 724.15 228.58C722.93 228.23 721.9 227.72 721.07 227.05L722.18 225.34C722.68 225.74 723.23 226.07 723.85 226.34C724.47 226.61 725.12 226.82 725.81 226.96C726.5 227.1 727.21 227.17 727.93 227.17C729.43 227.17 730.64 226.87 731.55 226.28C732.46 225.69 732.92 224.81 732.92 223.65C732.92 222.81 732.62 222.11 732.02 221.52C731.42 220.94 730.3 220.41 728.67 219.93L726.42 219.27C724.66 218.75 723.38 218.08 722.56 217.25C721.74 216.42 721.34 215.38 721.34 214.11C721.34 213.26 721.51 212.49 721.85 211.8C722.19 211.11 722.66 210.53 723.28 210.04C723.9 209.55 724.62 209.18 725.47 208.92C726.31 208.66 727.24 208.53 728.26 208.53C729.48 208.53 730.61 208.71 731.65 209.07C732.69 209.43 733.57 209.9 734.27 210.48L733.11 212.11C732.68 211.76 732.19 211.46 731.64 211.21C731.09 210.96 730.51 210.76 729.89 210.63C729.27 210.5 728.64 210.43 728 210.43C727.09 210.43 726.28 210.57 725.58 210.84C724.88 211.11 724.33 211.51 723.94 212.04C723.55 212.57 723.35 213.21 723.35 213.98C723.35 214.51 723.47 214.99 723.72 215.4C723.97 215.81 724.4 216.18 725.01 216.51C725.62 216.84 726.47 217.17 727.56 217.49L729.98 218.21C731.68 218.71 732.93 219.37 733.74 220.2C734.55 221.03 734.95 222.12 734.95 223.46C734.95 224.58 734.68 225.56 734.14 226.4C733.6 227.25 732.8 227.9 731.75 228.38C730.7 228.85 729.42 229.09 727.9 229.09V229.11Z" fill="white"/>
<path d="M743.2 228.69V210.96H737.47V208.97H751.08V210.96H745.35V228.69H743.21H743.2Z" fill="white"/>
<path d="M760.82 229.11C759.54 229.11 758.29 228.93 757.07 228.58C755.85 228.23 754.82 227.72 753.99 227.05L755.1 225.34C755.6 225.74 756.15 226.07 756.77 226.34C757.39 226.61 758.04 226.82 758.73 226.96C759.42 227.1 760.13 227.17 760.85 227.17C762.35 227.17 763.56 226.87 764.47 226.28C765.38 225.69 765.84 224.81 765.84 223.65C765.84 222.81 765.54 222.11 764.94 221.52C764.34 220.94 763.22 220.41 761.59 219.93L759.34 219.27C757.58 218.75 756.3 218.08 755.48 217.25C754.66 216.42 754.26 215.38 754.26 214.11C754.26 213.26 754.43 212.49 754.77 211.8C755.11 211.11 755.58 210.53 756.2 210.04C756.82 209.55 757.54 209.18 758.39 208.92C759.23 208.66 760.16 208.53 761.18 208.53C762.4 208.53 763.53 208.71 764.57 209.07C765.61 209.43 766.49 209.9 767.19 210.48L766.03 212.11C765.6 211.76 765.11 211.46 764.56 211.21C764.01 210.96 763.43 210.76 762.81 210.63C762.19 210.5 761.56 210.43 760.92 210.43C760.01 210.43 759.2 210.57 758.5 210.84C757.8 211.11 757.25 211.51 756.86 212.04C756.47 212.57 756.27 213.21 756.27 213.98C756.27 214.51 756.39 214.99 756.64 215.4C756.89 215.81 757.32 216.18 757.93 216.51C758.54 216.84 759.39 217.17 760.48 217.49L762.9 218.21C764.6 218.71 765.85 219.37 766.66 220.2C767.47 221.03 767.87 222.12 767.87 223.46C767.87 224.58 767.6 225.56 767.06 226.4C766.52 227.25 765.72 227.9 764.67 228.38C763.62 228.85 762.34 229.09 760.82 229.09V229.11Z" fill="white"/>
<path d="M253.74 97.3601C249.25 91.2801 243.07 86.6801 235.21 83.5501C227.35 80.4201 213.33 79.3101 192.33 78.8601H165.03L158.62 106H185.57L186.51 101.68C186.51 101.68 198.83 101.68 205.29 101.7C210.41 101.72 215.59 102.05 220.32 103.91C224.08 105.4 227.01 107.63 229.09 110.63C231.18 113.62 232.22 117.3 232.22 121.64C232.22 125.68 231.55 129.37 230.22 132.72C227.24 140.2 219.3 144.4 210.51 145.34C208.78 145.53 206.89 145.72 202.33 145.94L196.76 171.49C218.29 171.33 239.31 166.28 251.19 149.49C253.2 146.64 254.74 143.57 256.14 140.47C259.03 134.08 260.47 127.1 260.47 119.51C260.47 110.82 258.23 103.43 253.74 97.3501V97.3601Z" fill="#8DD88D"/>
<path d="M184.02 112.53L178.77 134.89H151.95H114.82L106.23 172.02H79.4399L100.99 78.8601H127.78L119.99 112.53H157.12H184.02Z" fill="#8DD88D"/>
<path d="M150.29 142.05L143.36 172.02H170.16L177.09 142.05H150.29Z" fill="#8DD88D"/>
<path d="M181.1 196.55L179.25 196.23L195.32 127.87H211.92V129.47H196.87L181.1 196.55Z" fill="#8DD88D"/>
<path d="M181.29 196.84L178.93 196.44L178.99 196.17L195.12 127.6H212.18V129.72H197.08L181.3 196.83L181.29 196.84ZM179.56 196.02L180.9 196.24L196.67 129.2H211.67V128.11H195.54L179.57 196.01L179.56 196.02Z" fill="#8DD88D"/>
<path d="M179.69 202.46C181.645 202.46 183.23 200.875 183.23 198.92C183.23 196.965 181.645 195.38 179.69 195.38C177.735 195.38 176.15 196.965 176.15 198.92C176.15 200.875 177.735 202.46 179.69 202.46Z" fill="#8DD88D"/>
<path d="M214.58 132.22C212.6 132.22 211 130.61 211 128.64C211 126.67 212.61 125.05 214.58 125.05C216.55 125.05 218.17 126.66 218.17 128.64C218.17 130.62 216.56 132.22 214.58 132.22ZM214.58 126.94C213.64 126.94 212.88 127.7 212.88 128.64C212.88 129.58 213.64 130.34 214.58 130.34C215.52 130.34 216.28 129.58 216.28 128.64C216.28 127.7 215.52 126.94 214.58 126.94Z" fill="#8DD88D"/>
<path d="M169.31 212.06L167.46 211.76L173.05 187.4L189.13 119.03H221.61V120.63H190.67L174.9 187.71L169.31 212.06Z" fill="#8DD88D"/>
<path d="M169.51 212.35L167.15 211.96L167.21 211.69L172.8 187.33L188.92 118.76H221.87V120.88H190.88L175.16 187.75L169.51 212.34V212.35ZM167.77 211.55L169.11 211.77L174.65 187.66L190.47 120.39H221.36V119.3H189.34L173.31 187.47L167.78 211.56L167.77 211.55Z" fill="#8DD88D"/>
<path d="M167.84 218.41C169.795 218.41 171.38 216.825 171.38 214.87C171.38 212.915 169.795 211.33 167.84 211.33C165.885 211.33 164.3 212.915 164.3 214.87C164.3 216.825 165.885 218.41 167.84 218.41Z" fill="#8DD88D"/>
<path d="M223.78 123.37C225.735 123.37 227.32 121.785 227.32 119.83C227.32 117.875 225.735 116.29 223.78 116.29C221.825 116.29 220.24 117.875 220.24 119.83C220.24 121.785 221.825 123.37 223.78 123.37Z" fill="#8DD88D"/>
<path d="M250.2 256.2H78.02L0 140.09L14.34 127.95L0.949997 114.58L2.06999 112.92L77.96 0H210.53L217.22 10.38H256.89L327.03 114.21L320.39 127.99L327.92 140.64L250.2 256.21V256.2ZM81.65 250.8H246.57L320.77 140.47L313.47 128.22L320.03 114.6L253.26 15.77H213.51L206.82 5.39001H81.58L8.62 113.96L22.92 128.25L7.86 141L81.64 250.8H81.65Z" fill="#8DD88D"/>
<path d="M240.02 241.05H88.2101L19.3601 138.59L31.9201 127.95L20.2101 116.25L21.3301 114.59L88.1601 15.1499H205.15L211.03 24.2699H245.9L307.77 115.85L301.93 127.97L308.57 139.11L240.03 241.03L240.02 241.05ZM91.8401 235.65H236.4L301.42 138.97L295.02 128.22L300.78 116.26L242.29 29.6799H207.33L201.45 20.5599H91.7901L27.8901 115.64L40.5301 128.26L27.2401 139.51L91.8501 235.66L91.8401 235.65Z" fill="#8DD88D"/>
<path d="M213.79 65C211.71 65 210.02 63.31 210.02 61.23C210.02 59.15 211.71 57.46 213.79 57.46C215.87 57.46 217.56 59.15 217.56 61.23C217.56 63.31 215.87 65 213.79 65ZM213.79 59.35C212.75 59.35 211.91 60.19 211.91 61.23C211.91 62.27 212.75 63.11 213.79 63.11C214.83 63.11 215.67 62.27 215.67 61.23C215.67 60.19 214.83 59.35 213.79 59.35Z" fill="#8DD88D"/>
<path d="M156.74 50.4799C154.66 50.4799 152.97 48.7899 152.97 46.7099C152.97 44.6299 154.66 42.9399 156.74 42.9399C158.82 42.9399 160.51 44.6299 160.51 46.7099C160.51 48.7899 158.82 50.4799 156.74 50.4799ZM156.74 44.83C155.7 44.83 154.86 45.6799 154.86 46.7099C154.86 47.7399 155.7 48.5899 156.74 48.5899C157.78 48.5899 158.62 47.7499 158.62 46.7099C158.62 45.6699 157.78 44.83 156.74 44.83Z" fill="#8DD88D"/>
<path d="M278.12 132.43C280.362 132.43 282.18 130.612 282.18 128.37C282.18 126.128 280.362 124.31 278.12 124.31C275.878 124.31 274.06 126.128 274.06 128.37C274.06 130.612 275.878 132.43 278.12 132.43Z" fill="#8DD88D"/>
<path d="M99.1301 222.49L45.4001 142.52L62.3401 127.51L48.6201 115.14L48.9702 114.61L102.94 34.3101L104.57 35.1201L50.9601 114.9L64.9601 127.52L47.7401 142.77L100.56 221.39L99.1301 222.49Z" fill="#8DD88D"/>
<path d="M99.0701 222.86L98.9201 222.63L45.0601 142.48L45.2301 142.33L61.9601 127.51L48.2901 115.18L48.7701 114.47L102.86 33.98L104.96 35.02L104.8 35.27L51.3101 114.86L65.3601 127.53L48.1001 142.83L100.92 221.47L99.0901 222.88L99.0701 222.86ZM45.7401 142.57L99.2001 222.12L100.21 221.34L47.41 142.73L47.5801 142.58L64.5801 127.52L50.6301 114.94L50.7601 114.75L104.21 35.22L103.04 34.64L48.9801 115.09L62.7501 127.51L45.7601 142.56L45.7401 142.57Z" fill="#8DD88D"/>
<path d="M101.33 227.68C99.2401 227.68 97.55 225.98 97.55 223.9C97.55 221.82 99.2501 220.12 101.33 220.12C103.41 220.12 105.11 221.82 105.11 223.9C105.11 225.98 103.41 227.68 101.33 227.68ZM101.33 222.1C100.34 222.1 99.5401 222.9 99.5401 223.89C99.5401 224.88 100.34 225.68 101.33 225.68C102.32 225.68 103.12 224.88 103.12 223.89C103.12 222.9 102.32 222.1 101.33 222.1Z" fill="#8DD88D"/>
<path d="M231.98 217.68L230.35 216.87L282.74 138.97L276.27 128.13L282.04 116.15L235.99 47.9902L237.62 47.1702L284.14 116.03L278.35 128.05L284.88 139.02L284.62 139.4L231.98 217.68Z" fill="#8DD88D"/>
<path d="M232.07 218.02L229.97 216.98L230.13 216.73L282.43 138.97L275.98 128.14L276.04 128.02L281.74 116.18L235.61 47.9001L237.71 46.8501L237.84 47.0401L284.44 116.01L284.37 116.14L278.64 128.04L285.18 139.03L284.83 139.55L232.06 218.02H232.07ZM230.73 216.77L231.89 217.35L284.57 139.02L278.05 128.07L278.11 127.95L283.83 116.06L237.53 47.5201L236.37 48.1001L282.34 116.14L282.27 116.27L276.56 128.12L283.04 138.99L282.95 139.13L230.73 216.78V216.77Z" fill="#8DD88D"/>
<path d="M211.63 60.55H116.78V62.17H211.63V60.55Z" fill="#8DD88D"/>
<path d="M211.89 62.43H116.53V60.29H211.89V62.43ZM117.04 61.91H211.37V60.81H117.04V61.91Z" fill="#8DD88D"/>
<path d="M237.39 46.1101H159.18V47.7301H237.39V46.1101Z" fill="#8DD88D"/>
<path d="M237.64 47.9901H158.92V45.8501H237.64V47.9901ZM159.44 47.4701H237.13V46.3701H159.44V47.4701Z" fill="#8DD88D"/>
<path d="M94.9601 194.79C97.114 194.79 98.8601 193.044 98.8601 190.89C98.8601 188.736 97.114 186.99 94.9601 186.99C92.8061 186.99 91.0601 188.736 91.0601 190.89C91.0601 193.044 92.8061 194.79 94.9601 194.79Z" fill="#8DD88D"/>
<path d="M159.37 194.89C157.14 194.89 155.32 193.07 155.32 190.84C155.32 188.61 157.14 186.79 159.37 186.79C161.6 186.79 163.42 188.61 163.42 190.84C163.42 193.07 161.6 194.89 159.37 194.89ZM159.37 188.67C158.17 188.67 157.2 189.64 157.2 190.84C157.2 192.04 158.17 193.01 159.37 193.01C160.57 193.01 161.54 192.04 161.54 190.84C161.54 189.64 160.57 188.67 159.37 188.67Z" fill="#8DD88D"/>
<path d="M156.5 190.19H97.8101V192.07H156.5V190.19Z" fill="#8DD88D"/>
<path d="M156.76 192.34H97.55V189.94H156.76V192.34ZM98.0701 191.82H156.24V190.45H98.0701V191.82Z" fill="#8DD88D"/>
<path d="M207.01 223.19H103.76V224.81H207.01V223.19Z" fill="#8DD88D"/>
<path d="M207.27 225.07H103.5V222.94H207.27V225.07ZM104.02 224.55H206.76V223.45H104.02V224.55Z" fill="#8DD88D"/>
<path d="M236.49 50.7799C238.732 50.7799 240.55 48.9622 240.55 46.7199C240.55 44.4776 238.732 42.6599 236.49 42.6599C234.248 42.6599 232.43 44.4776 232.43 46.7199C232.43 48.9622 234.248 50.7799 236.49 50.7799Z" fill="#8DD88D"/>
<path d="M114.62 65.3C116.862 65.3 118.68 63.4822 118.68 61.24C118.68 58.9977 116.862 57.1799 114.62 57.1799C112.378 57.1799 110.56 58.9977 110.56 61.24C110.56 63.4822 112.378 65.3 114.62 65.3Z" fill="#8DD88D"/>
<path d="M104.88 36.9C107.122 36.9 108.94 35.0823 108.94 32.84C108.94 30.5978 107.122 28.78 104.88 28.78C102.638 28.78 100.82 30.5978 100.82 32.84C100.82 35.0823 102.638 36.9 104.88 36.9Z" fill="#8DD88D"/>
<path d="M47.2199 146.86C49.4622 146.86 51.2799 145.042 51.2799 142.8C51.2799 140.558 49.4622 138.74 47.2199 138.74C44.9776 138.74 43.1599 140.558 43.1599 142.8C43.1599 145.042 44.9776 146.86 47.2199 146.86Z" fill="#8DD88D"/>
<path d="M62.6999 131.42C64.9422 131.42 66.7599 129.602 66.7599 127.36C66.7599 125.118 64.9422 123.3 62.6999 123.3C60.4576 123.3 58.6399 125.118 58.6399 127.36C58.6399 129.602 60.4576 131.42 62.6999 131.42Z" fill="#8DD88D"/>
<path d="M208.62 227.95C210.862 227.95 212.68 226.132 212.68 223.89C212.68 221.648 210.862 219.83 208.62 219.83C206.378 219.83 204.56 221.648 204.56 223.89C204.56 226.132 206.378 227.95 208.62 227.95Z" fill="#8DD88D"/>
<path d="M230.19 222.66C232.432 222.66 234.25 220.842 234.25 218.6C234.25 216.358 232.432 214.54 230.19 214.54C227.948 214.54 226.13 216.358 226.13 218.6C226.13 220.842 227.948 222.66 230.19 222.66Z" fill="#8DD88D"/>
<path d="M377.83 188.22V124.88H399.55C406.13 124.88 411.89 126.22 416.86 128.91C421.82 131.6 425.69 135.31 428.47 140.06C431.24 144.81 432.63 150.31 432.63 156.55C432.63 161.25 431.84 165.55 430.25 169.44C428.67 173.33 426.41 176.67 423.49 179.46C420.56 182.25 417.08 184.41 413.04 185.93C409 187.45 404.5 188.21 399.56 188.21H377.84L377.83 188.22ZM392.85 174.24H398.78C401.5 174.24 403.95 173.86 406.16 173.11C408.36 172.36 410.27 171.23 411.88 169.72C413.49 168.21 414.73 166.36 415.59 164.15C416.45 161.95 416.88 159.42 416.88 156.55C416.88 152.72 416.13 149.49 414.62 146.87C413.11 144.25 410.99 142.26 408.26 140.9C405.53 139.54 402.37 138.86 398.78 138.86H392.85V174.24Z" fill="#8DD88D"/>
<path d="M476.06 189.58C471.2 189.58 466.71 188.74 462.58 187.07C458.45 185.4 454.87 183.07 451.83 180.08C448.79 177.09 446.45 173.6 444.77 169.58C443.1 165.57 442.26 161.23 442.26 156.55C442.26 151.87 443.1 147.49 444.77 143.47C446.44 139.46 448.8 135.96 451.83 132.97C454.86 129.98 458.44 127.66 462.58 126C466.71 124.34 471.21 123.51 476.06 123.51C480.91 123.51 485.4 124.35 489.52 126.04C493.64 127.73 497.22 130.08 500.27 133.1C503.32 136.12 505.68 139.62 507.35 143.62C509.02 147.62 509.86 151.92 509.86 156.54C509.86 161.16 509.02 165.56 507.35 169.57C505.68 173.58 503.32 177.08 500.27 180.07C497.22 183.06 493.64 185.39 489.52 187.06C485.4 188.73 480.92 189.57 476.06 189.57V189.58ZM476.06 175.46C478.65 175.46 481.05 175.02 483.25 174.15C485.45 173.28 487.37 172.01 489 170.35C490.63 168.69 491.89 166.69 492.78 164.36C493.67 162.02 494.11 159.42 494.11 156.56C494.11 152.73 493.33 149.4 491.76 146.56C490.19 143.72 488.05 141.53 485.33 139.98C482.62 138.43 479.52 137.65 476.06 137.65C473.46 137.65 471.07 138.09 468.87 138.96C466.67 139.84 464.76 141.1 463.15 142.76C461.54 144.42 460.28 146.41 459.37 148.73C458.47 151.05 458.01 153.66 458.01 156.56C458.01 160.39 458.79 163.72 460.36 166.56C461.93 169.4 464.08 171.59 466.81 173.14C469.54 174.69 472.62 175.47 476.06 175.47V175.46Z" fill="#8DD88D"/>
<path d="M552.7 189.58C546.12 189.58 540.34 188.24 535.35 185.55C530.36 182.87 526.46 179.07 523.65 174.15C520.84 169.23 519.44 163.43 519.44 156.73C519.44 151.84 520.26 147.37 521.91 143.32C523.55 139.26 525.88 135.76 528.88 132.8C531.88 129.84 535.42 127.56 539.49 125.95C543.56 124.34 548.04 123.53 552.93 123.53C558.21 123.53 562.64 124.2 566.23 125.54C569.82 126.88 573.06 128.77 575.96 131.22L568.45 143.53C566.67 141.72 564.55 140.37 562.09 139.48C559.63 138.59 556.91 138.14 553.92 138.14C550.93 138.14 548.33 138.57 546.02 139.43C543.71 140.29 541.75 141.52 540.14 143.12C538.53 144.72 537.3 146.65 536.45 148.91C535.6 151.17 535.18 153.72 535.18 156.56C535.18 160.39 535.94 163.68 537.46 166.42C538.98 169.16 541.16 171.27 544 172.73C546.83 174.19 550.23 174.92 554.18 174.92C557.02 174.92 559.83 174.49 562.62 173.63C565.41 172.77 568.06 171.38 570.56 169.44L577.44 182.06C574.51 184.32 571.02 186.14 566.94 187.51C562.87 188.88 558.12 189.57 552.69 189.57L552.7 189.58Z" fill="#8DD88D"/>
<path d="M599.34 188.22V138.59H582.46V124.88H631.32V138.59H614.44V188.22H599.33H599.34Z" fill="#8DD88D"/>
<path d="M669.74 189.58C664.88 189.58 660.39 188.74 656.26 187.07C652.13 185.4 648.55 183.07 645.51 180.08C642.47 177.09 640.13 173.6 638.45 169.58C636.78 165.57 635.94 161.23 635.94 156.55C635.94 151.87 636.78 147.49 638.45 143.47C640.12 139.46 642.48 135.96 645.51 132.97C648.54 129.98 652.12 127.66 656.26 126C660.39 124.34 664.89 123.51 669.74 123.51C674.59 123.51 679.08 124.35 683.2 126.04C687.32 127.73 690.9 130.08 693.95 133.1C697 136.12 699.36 139.62 701.03 143.62C702.7 147.62 703.54 151.92 703.54 156.54C703.54 161.16 702.7 165.56 701.03 169.57C699.36 173.58 697 177.08 693.95 180.07C690.9 183.06 687.32 185.39 683.2 187.06C679.08 188.73 674.6 189.57 669.74 189.57V189.58ZM669.74 175.46C672.33 175.46 674.73 175.02 676.93 174.15C679.13 173.28 681.05 172.01 682.68 170.35C684.31 168.69 685.57 166.69 686.46 164.36C687.35 162.02 687.79 159.42 687.79 156.56C687.79 152.73 687.01 149.4 685.44 146.56C683.87 143.72 681.73 141.53 679.01 139.98C676.3 138.43 673.2 137.65 669.74 137.65C667.14 137.65 664.75 138.09 662.55 138.96C660.35 139.84 658.44 141.1 656.83 142.76C655.22 144.42 653.96 146.41 653.05 148.73C652.14 151.05 651.69 153.66 651.69 156.56C651.69 160.39 652.47 163.72 654.04 166.56C655.61 169.4 657.76 171.59 660.49 173.14C663.22 174.69 666.3 175.47 669.74 175.47V175.46Z" fill="#8DD88D"/>
<path d="M716.16 188.22V124.88H741.86C746.56 124.88 750.67 125.65 754.19 127.19C757.7 128.73 760.42 130.94 762.33 133.82C764.25 136.7 765.2 140.18 765.2 144.25C765.2 147.36 764.61 150.09 763.44 152.44C762.26 154.79 760.65 156.76 758.6 158.34C756.55 159.92 754.23 161.09 751.63 161.85L768.69 188.23H750.86L736.74 164.93H731.17V188.23H716.15L716.16 188.22ZM731.18 152.89H740.05C743.19 152.89 745.64 152.27 747.4 151.03C749.16 149.79 750.05 147.85 750.05 145.19C750.05 142.53 749.21 140.43 747.54 139.15C745.87 137.87 743.47 137.23 740.37 137.23H731.19V152.88L731.18 152.89Z" fill="#8DD88D"/>
</svg>
