<svg width="36" height="36" viewBox="0 0 36 36" fill="none" xmlns="http://www.w3.org/2000/svg">
<g clip-path="url(#clip0_1_312)">
<g clip-path="url(#clip1_1_312)">
<path d="M19.6601 16.0394C21.5094 17.8887 21.5094 20.887 19.6601 22.7364C17.8108 24.5857 14.8124 24.5857 12.9631 22.7364C11.1138 20.887 11.1138 17.8887 12.9631 16.0394C14.8124 14.19 17.8108 14.19 19.6601 16.0394Z" stroke="white" stroke-linecap="round" stroke-linejoin="round"/>
<path fill-rule="evenodd" clip-rule="evenodd" d="M32.101 18.5581C32.101 10.2976 25.405 3.60156 17.1445 3.60156V9.58356C22.1005 9.58356 26.119 13.6006 26.119 18.5581H32.101Z" stroke="white" stroke-linecap="round" stroke-linejoin="round"/>
<path d="M29.0246 18.5572V19.3883C29.0246 26.4098 23.3336 32.1008 16.3121 32.1008C9.29061 32.1008 3.59961 26.4098 3.59961 19.3883C3.59961 12.3667 9.29061 6.67578 16.3121 6.67578H17.1431" stroke="white" stroke-linecap="round" stroke-linejoin="round"/>
</g>
</g>
<defs>
<clipPath id="clip0_1_312">
<rect width="36" height="36" fill="white"/>
</clipPath>
<clipPath id="clip1_1_312">
<rect width="36" height="36" fill="white"/>
</clipPath>
</defs>
</svg>
