<?xml version="1.0" encoding="UTF-8"?>
<svg id="Layer_1" data-name="Layer 1" xmlns="http://www.w3.org/2000/svg" viewBox="0 0 1080 1080">
  <defs>
    <style>
      .cls-1 {
        fill: #8dd88d;
      }

      .cls-2 {
        fill: #fff;
      }
    </style>
  </defs>
  <rect width="1080" height="1080"/>
  <g>
    <g>
      <g>
        <path class="cls-2" d="M533.52,511.21v-72.22h17.51v26.77h29.12v-26.77h17.51v72.22h-17.51v-29.82h-29.12v29.82h-17.51Z"/>
        <path class="cls-2" d="M631.79,511.21v-30.18l-25.9-42.04h19.68l15.35,25.64,15.19-25.64h19.15l-25.9,42.2v30.02h-17.57Z"/>
        <path class="cls-2" d="M683.48,511.21v-72.22h28.59c7.52,0,13.54,1.54,18.04,4.62,4.5,3.08,6.75,7.64,6.75,13.7,0,2.2-.46,4.23-1.37,6.09-.91,1.86-2.15,3.5-3.72,4.93-1.57,1.43-3.32,2.57-5.25,3.43,3.97,1.38,7.18,3.66,9.63,6.86,2.44,3.2,3.67,7,3.67,11.4s-1.1,8.03-3.3,11.19c-2.2,3.16-5.32,5.62-9.36,7.38-4.04,1.75-8.84,2.63-14.4,2.63h-29.28ZM701,468.6h8.7c2.11,0,3.92-.34,5.43-1.03,1.51-.69,2.69-1.68,3.53-2.99.84-1.31,1.27-2.87,1.27-4.69,0-2.65-.91-4.68-2.72-6.11-1.81-1.43-4.41-2.14-7.78-2.14h-8.44v16.97ZM701,498.57h9.23c3.8,0,6.65-.76,8.54-2.27,1.9-1.51,2.85-3.78,2.85-6.81s-.91-5.13-2.74-6.73c-1.83-1.6-4.52-2.4-8.07-2.4h-9.81v18.21Z"/>
        <path class="cls-2" d="M752.9,511.21v-72.22h29.96c5.49,0,10.28.88,14.37,2.63,4.1,1.75,7.26,4.27,9.5,7.56,2.23,3.28,3.35,7.25,3.35,11.89,0,3.54-.69,6.65-2.06,9.34-1.37,2.68-3.25,4.93-5.64,6.73-2.39,1.81-5.1,3.14-8.12,4l19.89,30.07h-20.78l-16.46-26.57h-6.49v26.57h-17.51ZM770.41,470.92h10.34c3.66,0,6.51-.7,8.57-2.11s3.09-3.63,3.09-6.65-.98-5.42-2.93-6.89c-1.95-1.46-4.74-2.19-8.36-2.19h-10.71v17.85Z"/>
        <path class="cls-2" d="M825.37,511.21v-72.22h17.51v72.22h-17.51Z"/>
        <path class="cls-2" d="M860.29,511.21v-72.22h25.32c7.67,0,14.39,1.53,20.18,4.59,5.78,3.06,10.29,7.3,13.53,12.72,3.23,5.42,4.85,11.68,4.85,18.8,0,5.37-.92,10.27-2.77,14.7-1.85,4.44-4.48,8.25-7.89,11.43-3.41,3.18-7.47,5.64-12.18,7.38-4.71,1.74-9.95,2.61-15.72,2.61h-25.32ZM877.81,495.27h6.91c3.16,0,6.03-.43,8.6-1.29,2.57-.86,4.79-2.15,6.67-3.87,1.88-1.72,3.32-3.83,4.33-6.34,1-2.51,1.5-5.4,1.5-8.67,0-4.37-.88-8.05-2.64-11.04-1.76-2.99-4.23-5.26-7.41-6.81-3.18-1.55-6.87-2.32-11.05-2.32h-6.91v40.34Z"/>
      </g>
      <g>
        <path class="cls-2" d="M537.79,640.59v-17.73h-5.73v-1.99h13.61v1.99h-5.73v17.73h-2.14Z"/>
        <path class="cls-2" d="M557.23,641.01c-1.46,0-2.81-.26-4.06-.78-1.25-.52-2.35-1.25-3.28-2.18-.93-.93-1.65-2.02-2.17-3.27-.52-1.25-.78-2.6-.78-4.06s.26-2.82.78-4.07c.52-1.25,1.24-2.34,2.17-3.27.93-.93,2.02-1.65,3.28-2.17,1.25-.52,2.61-.78,4.06-.78s2.79.26,4.04.79c1.25.53,2.34,1.26,3.27,2.2.93.94,1.66,2.03,2.18,3.28.52,1.24.78,2.58.78,4.02s-.26,2.81-.78,4.06-1.25,2.34-2.18,3.27c-.93.93-2.02,1.66-3.27,2.18-1.25.52-2.6.78-4.04.78ZM557.23,638.97c1.12,0,2.16-.19,3.14-.58s1.83-.95,2.56-1.68c.73-.73,1.31-1.6,1.72-2.6.41-1.01.62-2.14.62-3.37,0-1.65-.36-3.1-1.08-4.33-.72-1.24-1.69-2.2-2.9-2.88-1.22-.68-2.57-1.03-4.06-1.03-1.12,0-2.16.2-3.14.58-.98.39-1.83.95-2.56,1.68s-1.31,1.59-1.73,2.6c-.42,1-.63,2.13-.63,3.38,0,1.65.36,3.1,1.08,4.33.72,1.23,1.69,2.19,2.91,2.88,1.22.69,2.57,1.03,4.06,1.03Z"/>
        <path class="cls-2" d="M575.26,640.59v-8.69l-7-11.03h2.52l5.61,8.93,5.56-8.93h2.45l-7,11.03v8.69h-2.14Z"/>
        <path class="cls-2" d="M595.43,641.01c-1.46,0-2.81-.26-4.06-.78-1.25-.52-2.35-1.25-3.28-2.18-.93-.93-1.65-2.02-2.17-3.27-.52-1.25-.78-2.6-.78-4.06s.26-2.82.78-4.07c.52-1.25,1.24-2.34,2.17-3.27.93-.93,2.02-1.65,3.28-2.17,1.25-.52,2.61-.78,4.06-.78s2.79.26,4.04.79c1.25.53,2.34,1.26,3.27,2.2s1.66,2.03,2.18,3.28c.52,1.24.78,2.58.78,4.02s-.26,2.81-.78,4.06-1.25,2.34-2.18,3.27c-.93.93-2.02,1.66-3.27,2.18-1.25.52-2.6.78-4.04.78ZM595.43,638.97c1.12,0,2.16-.19,3.14-.58.98-.39,1.83-.95,2.56-1.68.73-.73,1.31-1.6,1.72-2.6.41-1.01.62-2.14.62-3.37,0-1.65-.36-3.1-1.08-4.33-.72-1.24-1.69-2.2-2.9-2.88-1.22-.68-2.57-1.03-4.06-1.03-1.12,0-2.16.2-3.14.58-.98.39-1.83.95-2.56,1.68s-1.31,1.59-1.73,2.6c-.42,1-.63,2.13-.63,3.38,0,1.65.36,3.1,1.08,4.33.72,1.23,1.69,2.19,2.91,2.88s2.57,1.03,4.06,1.03Z"/>
        <path class="cls-2" d="M612.72,640.59v-17.73h-5.73v-1.99h13.61v1.99h-5.73v17.73h-2.14Z"/>
        <path class="cls-2" d="M620.68,640.59l7.85-19.72h2.08l8.14,19.72h-2.41l-2.11-5.17h-9.2l-2.01,5.17h-2.34ZM625.69,633.49h7.85l-4.03-9.76-3.82,9.76Z"/>
        <path class="cls-2" d="M649.1,640.59v-19.72h2.14v8.18h10.73v-8.18h2.14v19.72h-2.14v-9.55h-10.73v9.55h-2.14Z"/>
        <path class="cls-2" d="M674.23,640.59v-8.69l-7-11.03h2.52l5.61,8.93,5.56-8.93h2.45l-7,11.03v8.69h-2.14Z"/>
        <path class="cls-2" d="M686.49,640.59v-19.72h6.18c1.81,0,3.29.42,4.42,1.26,1.14.84,1.7,2.08,1.7,3.71,0,.64-.17,1.25-.49,1.84-.33.59-.74,1.11-1.24,1.55-.5.44-1,.75-1.52.92,1.09.31,2.01.9,2.77,1.77.76.87,1.13,1.97,1.13,3.29,0,1.02-.26,1.94-.78,2.75-.52.81-1.25,1.45-2.2,1.92-.95.47-2.08.7-3.39.7h-6.59ZM688.63,629.52h3.65c.89,0,1.67-.14,2.32-.42.66-.28,1.17-.69,1.54-1.22.37-.53.55-1.16.55-1.89,0-1.06-.39-1.87-1.15-2.43-.77-.56-1.87-.84-3.28-.84h-3.62v6.8ZM688.63,638.74h4c1.57,0,2.73-.3,3.5-.9.77-.6,1.15-1.53,1.15-2.78s-.39-2.15-1.18-2.79c-.78-.64-2-.96-3.66-.96h-3.82v7.42Z"/>
        <path class="cls-2" d="M703.9,640.59v-19.72h7.09c1.29,0,2.42.24,3.36.7.94.47,1.67,1.13,2.18,1.99.51.86.77,1.87.77,3.02,0,1-.23,1.87-.68,2.63-.45.76-1.09,1.38-1.91,1.85-.82.47-1.79.78-2.91.92l6.38,8.59h-2.66l-6.16-8.41h-3.33v8.41h-2.14ZM706.04,630.28h4.45c1.47,0,2.62-.32,3.43-.97.81-.65,1.22-1.54,1.22-2.66s-.36-2.11-1.07-2.81-1.81-1.05-3.28-1.05h-4.75v7.49Z"/>
        <path class="cls-2" d="M722.19,640.59v-19.72h2.14v19.72h-2.14Z"/>
        <path class="cls-2" d="M729.8,640.59v-19.72h5.78c1.9,0,3.58.42,5.06,1.27,1.47.85,2.63,2.01,3.47,3.49s1.26,3.19,1.26,5.13c0,1.43-.24,2.74-.72,3.94-.48,1.2-1.16,2.24-2.04,3.12s-1.91,1.56-3.11,2.04c-1.19.48-2.5.73-3.93.73h-5.78ZM731.94,638.59h3.16c1.21,0,2.31-.18,3.3-.55.99-.37,1.83-.89,2.54-1.58.71-.69,1.25-1.52,1.63-2.48.38-.96.57-2.04.57-3.22,0-1.61-.33-3-.99-4.18-.66-1.18-1.6-2.09-2.8-2.74-1.21-.65-2.62-.97-4.25-.97h-3.16v15.72Z"/>
        <path class="cls-2" d="M762.89,641.01c-1.28,0-2.53-.18-3.75-.53-1.22-.35-2.25-.86-3.08-1.53l1.11-1.71c.5.4,1.05.73,1.67,1,.62.27,1.27.48,1.96.62.69.14,1.4.21,2.12.21,1.5,0,2.71-.3,3.62-.89.91-.59,1.37-1.47,1.37-2.63,0-.84-.3-1.54-.9-2.13-.6-.58-1.72-1.11-3.35-1.59l-2.25-.66c-1.76-.52-3.04-1.19-3.86-2.02-.82-.83-1.22-1.87-1.22-3.14,0-.85.17-1.62.51-2.31.34-.69.81-1.27,1.43-1.76.62-.49,1.34-.86,2.19-1.12.84-.26,1.77-.39,2.79-.39,1.22,0,2.35.18,3.39.54,1.04.36,1.92.83,2.62,1.41l-1.16,1.63c-.43-.35-.92-.65-1.47-.9-.55-.25-1.13-.45-1.75-.58-.62-.13-1.25-.2-1.89-.2-.91,0-1.72.14-2.42.41-.7.27-1.25.67-1.64,1.2-.39.53-.59,1.17-.59,1.94,0,.53.12,1.01.37,1.42.25.41.68.78,1.29,1.11s1.46.66,2.55.98l2.42.72c1.7.5,2.95,1.16,3.76,1.99.81.83,1.21,1.92,1.21,3.26,0,1.12-.27,2.1-.81,2.94-.54.85-1.34,1.5-2.39,1.98-1.05.47-2.33.71-3.85.71Z"/>
        <path class="cls-2" d="M774.27,640.59v-19.72h6.62c1.36,0,2.56.23,3.59.69,1.03.46,1.83,1.12,2.42,1.99.58.86.87,1.9.87,3.11s-.27,2.29-.8,3.13c-.53.85-1.32,1.5-2.35,1.94-1.03.44-2.28.66-3.77.66h-4.44v8.2h-2.14ZM776.41,630.46h4.59c1.46,0,2.6-.31,3.41-.94.81-.63,1.21-1.56,1.21-2.8s-.41-2.16-1.23-2.86c-.82-.69-1.94-1.04-3.36-1.04h-4.62v7.65Z"/>
        <path class="cls-2" d="M791.68,640.59v-19.72h11.99v1.94h-9.85v6.44h8.66v1.89h-8.66v7.49h9.93v1.96h-12.07Z"/>
        <path class="cls-2" d="M817.38,641.01c-2.04,0-3.82-.43-5.33-1.28-1.52-.85-2.69-2.05-3.53-3.6-.84-1.54-1.25-3.35-1.25-5.42,0-1.49.25-2.86.75-4.11.5-1.24,1.2-2.33,2.1-3.25.91-.93,1.98-1.64,3.21-2.15,1.23-.51,2.59-.76,4.06-.76s2.64.18,3.72.53c1.08.35,2,.85,2.78,1.49l-1.18,1.75c-.67-.58-1.43-1.01-2.3-1.29-.86-.28-1.81-.42-2.84-.42-1.22,0-2.33.19-3.32.57-.99.38-1.84.93-2.55,1.64-.71.71-1.25,1.58-1.64,2.58-.38,1.01-.57,2.14-.57,3.4,0,1.75.34,3.23,1.01,4.46.68,1.23,1.63,2.16,2.87,2.81,1.23.65,2.69.97,4.36.97,1.06,0,2.07-.16,3.03-.47.96-.31,1.86-.83,2.7-1.56l1.01,1.83c-.98.77-2.05,1.34-3.23,1.71-1.18.37-2.47.56-3.87.56Z"/>
        <path class="cls-2" d="M828.13,640.59v-19.72h2.14v19.72h-2.14Z"/>
        <path class="cls-2" d="M833.44,640.59l7.85-19.72h2.08l8.14,19.72h-2.41l-2.11-5.17h-9.2l-2.01,5.17h-2.34ZM838.45,633.49h7.85l-4.03-9.76-3.82,9.76Z"/>
        <path class="cls-2" d="M854.68,640.59v-19.72h2.14v17.73h9.04v1.99h-11.18Z"/>
        <path class="cls-2" d="M869.68,640.59v-19.72h2.14v19.72h-2.14Z"/>
        <path class="cls-2" d="M883.39,641.01c-1.28,0-2.53-.18-3.75-.53-1.22-.35-2.25-.86-3.08-1.53l1.11-1.71c.5.4,1.05.73,1.67,1,.62.27,1.27.48,1.96.62.69.14,1.4.21,2.12.21,1.5,0,2.71-.3,3.62-.89.91-.59,1.37-1.47,1.37-2.63,0-.84-.3-1.54-.9-2.13-.6-.58-1.72-1.11-3.35-1.59l-2.25-.66c-1.76-.52-3.04-1.19-3.86-2.02-.82-.83-1.22-1.87-1.22-3.14,0-.85.17-1.62.51-2.31.34-.69.81-1.27,1.43-1.76.62-.49,1.34-.86,2.19-1.12.84-.26,1.77-.39,2.79-.39,1.22,0,2.35.18,3.39.54,1.04.36,1.92.83,2.62,1.41l-1.16,1.63c-.43-.35-.92-.65-1.47-.9-.55-.25-1.13-.45-1.75-.58-.62-.13-1.25-.2-1.89-.2-.91,0-1.72.14-2.42.41-.7.27-1.25.67-1.64,1.2-.39.53-.59,1.17-.59,1.94,0,.53.12,1.01.37,1.42.25.41.68.78,1.29,1.11s1.46.66,2.55.98l2.42.72c1.7.5,2.95,1.16,3.76,1.99.81.83,1.21,1.92,1.21,3.26,0,1.12-.27,2.1-.81,2.94-.54.85-1.34,1.5-2.39,1.98-1.05.47-2.33.71-3.85.71Z"/>
        <path class="cls-2" d="M898.69,640.59v-17.73h-5.73v-1.99h13.61v1.99h-5.73v17.73h-2.14Z"/>
        <path class="cls-2" d="M916.31,641.01c-1.28,0-2.53-.18-3.75-.53-1.22-.35-2.25-.86-3.08-1.53l1.11-1.71c.5.4,1.05.73,1.67,1,.62.27,1.27.48,1.96.62.69.14,1.4.21,2.12.21,1.5,0,2.71-.3,3.62-.89.91-.59,1.37-1.47,1.37-2.63,0-.84-.3-1.54-.9-2.13-.6-.58-1.72-1.11-3.35-1.59l-2.25-.66c-1.76-.52-3.04-1.19-3.86-2.02-.82-.83-1.22-1.87-1.22-3.14,0-.85.17-1.62.51-2.31.34-.69.81-1.27,1.43-1.76s1.34-.86,2.19-1.12c.84-.26,1.77-.39,2.79-.39,1.22,0,2.35.18,3.39.54,1.04.36,1.92.83,2.62,1.41l-1.16,1.63c-.43-.35-.92-.65-1.47-.9-.55-.25-1.13-.45-1.75-.58-.62-.13-1.25-.2-1.89-.2-.91,0-1.72.14-2.42.41-.7.27-1.25.67-1.64,1.2-.39.53-.59,1.17-.59,1.94,0,.53.12,1.01.37,1.42s.68.78,1.29,1.11,1.46.66,2.55.98l2.42.72c1.7.5,2.95,1.16,3.76,1.99.81.83,1.21,1.92,1.21,3.26,0,1.12-.27,2.1-.81,2.94-.54.85-1.34,1.5-2.39,1.98-1.05.47-2.33.71-3.85.71Z"/>
      </g>
    </g>
    <g>
      <g>
        <path class="cls-1" d="M409.23,509.26c-4.49-6.08-10.67-10.68-18.53-13.81-7.86-3.13-21.88-4.24-42.88-4.69h-27.3l-6.41,27.14h26.95s.94-4.32.94-4.32c0,0,12.32,0,18.78.02,5.12.02,10.3.35,15.03,2.21,3.76,1.49,6.69,3.72,8.77,6.72,2.09,2.99,3.13,6.67,3.13,11.01,0,4.04-.67,7.73-2,11.08-2.98,7.48-10.92,11.68-19.71,12.62-1.73.19-3.62.38-8.18.6,0,0-5.57,25.55-5.57,25.55,21.53-.16,42.55-5.21,54.43-22,2.01-2.85,3.55-5.92,4.95-9.02,2.89-6.39,4.33-13.37,4.33-20.96,0-8.69-2.24-16.08-6.73-22.16Z"/>
        <polygon class="cls-1" points="339.51 524.43 334.26 546.79 307.44 546.79 307.44 546.79 270.31 546.79 261.72 583.92 234.93 583.92 256.48 490.76 283.27 490.76 275.48 524.43 312.61 524.43 339.51 524.43"/>
        <polygon class="cls-1" points="305.78 553.95 298.85 583.92 325.65 583.92 332.58 553.95 305.78 553.95"/>
      </g>
      <g>
        <polygon class="cls-1" points="336.59 608.45 334.74 608.13 350.81 539.77 367.41 539.77 367.41 541.37 352.36 541.37 336.59 608.45"/>
        <path class="cls-1" d="M336.78,608.74l-2.36-.4.06-.27,16.13-68.57h17.06v2.12h-15.1l-15.78,67.11ZM335.05,607.92l1.34.22,15.77-67.04h15v-1.09h-16.13l-15.97,67.9Z"/>
      </g>
      <circle class="cls-1" cx="335.18" cy="610.82" r="3.54"/>
      <path class="cls-1" d="M370.07,544.12c-1.98,0-3.58-1.61-3.58-3.58s1.61-3.59,3.58-3.59,3.59,1.61,3.59,3.59-1.61,3.58-3.59,3.58ZM370.07,538.84c-.94,0-1.7.76-1.7,1.7s.76,1.7,1.7,1.7,1.7-.76,1.7-1.7-.76-1.7-1.7-1.7Z"/>
      <g>
        <polygon class="cls-1" points="324.8 623.96 322.95 623.66 328.54 599.3 344.62 530.93 377.1 530.93 377.1 532.53 346.16 532.53 330.39 599.61 324.8 623.96"/>
        <path class="cls-1" d="M325,624.25l-2.36-.39.06-.27,5.59-24.36,16.12-68.57h32.95v2.12h-30.99l-15.72,66.87-5.65,24.59ZM323.26,623.45l1.34.22,5.54-24.11,15.82-67.27h30.89v-1.09h-32.02l-16.03,68.17-5.53,24.09Z"/>
      </g>
      <circle class="cls-1" cx="323.33" cy="626.77" r="3.54"/>
      <circle class="cls-1" cx="379.27" cy="531.73" r="3.54"/>
      <path class="cls-1" d="M405.69,668.1h-172.18l-78.02-116.11,14.34-12.14-13.39-13.37,1.12-1.66,75.89-112.92h132.57l6.69,10.38h39.67l70.14,103.83-6.64,13.78,7.53,12.65-77.72,115.57ZM237.14,662.7h164.92l74.2-110.33-7.3-12.25,6.56-13.62-66.77-98.83h-39.75l-6.69-10.38h-125.24l-72.96,108.57,14.3,14.29-15.06,12.75,73.78,109.8Z"/>
      <path class="cls-1" d="M395.51,652.95h-151.81l-68.85-102.46,12.56-10.64-11.71-11.7,1.12-1.66,66.83-99.44h116.99l5.88,9.12h34.87l61.87,91.58-5.84,12.12,6.64,11.14-68.54,101.92ZM247.33,647.55h144.56l65.02-96.68-6.4-10.75,5.76-11.96-58.49-86.58h-34.96l-5.88-9.12h-109.66l-63.9,95.08,12.64,12.62-13.29,11.25,64.61,96.15Z"/>
      <path class="cls-1" d="M369.28,476.9c-2.08,0-3.77-1.69-3.77-3.77s1.69-3.77,3.77-3.77,3.77,1.69,3.77,3.77-1.69,3.77-3.77,3.77ZM369.28,471.25c-1.04,0-1.88.84-1.88,1.88s.84,1.88,1.88,1.88,1.88-.84,1.88-1.88-.84-1.88-1.88-1.88Z"/>
      <path class="cls-1" d="M312.23,462.38c-2.08,0-3.77-1.69-3.77-3.77s1.69-3.77,3.77-3.77,3.77,1.69,3.77,3.77-1.69,3.77-3.77,3.77ZM312.23,456.73c-1.04,0-1.88.85-1.88,1.88s.84,1.88,1.88,1.88,1.88-.84,1.88-1.88-.84-1.88-1.88-1.88Z"/>
      <circle class="cls-1" cx="433.61" cy="540.27" r="4.06"/>
      <g>
        <polygon class="cls-1" points="254.62 634.39 200.89 554.42 217.83 539.41 204.11 527.04 204.46 526.51 258.43 446.21 260.06 447.02 206.45 526.8 220.45 539.42 203.23 554.67 256.05 633.29 254.62 634.39"/>
        <path class="cls-1" d="M254.56,634.76l-.15-.23-53.86-80.15.17-.15,16.73-14.82-13.67-12.33.48-.71,54.09-80.49,2.1,1.04-.16.25-53.49,79.59,14.05,12.67-17.26,15.3,52.82,78.64-1.83,1.41ZM201.23,554.47l53.46,79.55,1.01-.78-52.8-78.61.17-.15,17-15.06-13.95-12.58.13-.19,53.45-79.53-1.17-.58-54.06,80.45,13.77,12.42-16.99,15.05Z"/>
      </g>
      <path class="cls-1" d="M256.82,639.58c-2.09,0-3.78-1.7-3.78-3.78s1.7-3.78,3.78-3.78,3.78,1.7,3.78,3.78-1.7,3.78-3.78,3.78ZM256.82,634c-.99,0-1.79.8-1.79,1.79s.8,1.79,1.79,1.79,1.79-.8,1.79-1.79-.8-1.79-1.79-1.79Z"/>
      <g>
        <polygon class="cls-1" points="387.47 629.58 385.84 628.77 438.23 550.87 431.76 540.03 437.53 528.05 391.48 459.89 393.11 459.07 439.63 527.93 433.84 539.95 440.37 550.92 440.11 551.3 387.47 629.58"/>
        <path class="cls-1" d="M387.56,629.92l-2.1-1.04.16-.25,52.3-77.76-6.45-10.83.06-.12,5.7-11.84-46.13-68.28,2.1-1.05.13.19,46.6,68.97-.07.13-5.73,11.9,6.54,10.99-.35.52-52.77,78.47ZM386.22,628.67l1.16.58,52.68-78.33-6.52-10.95.06-.12,5.72-11.89-46.3-68.54-1.16.58,45.97,68.04-.07.13-5.71,11.85,6.48,10.87-.09.14-52.22,77.65Z"/>
      </g>
      <g>
        <rect class="cls-1" x="272.27" y="472.45" width="94.85" height="1.62"/>
        <path class="cls-1" d="M367.38,474.33h-95.36v-2.14h95.36v2.14ZM272.53,473.81h94.33v-1.1h-94.33v1.1Z"/>
      </g>
      <g>
        <rect class="cls-1" x="314.67" y="458.01" width="78.21" height="1.62"/>
        <path class="cls-1" d="M393.13,459.89h-78.72v-2.14h78.72v2.14ZM314.93,459.37h77.69v-1.1h-77.69v1.1Z"/>
      </g>
      <circle class="cls-1" cx="250.45" cy="602.79" r="3.9"/>
      <path class="cls-1" d="M314.86,606.79c-2.23,0-4.05-1.82-4.05-4.05s1.82-4.05,4.05-4.05,4.05,1.82,4.05,4.05-1.82,4.05-4.05,4.05ZM314.86,600.57c-1.2,0-2.17.97-2.17,2.17s.97,2.17,2.17,2.17,2.17-.97,2.17-2.17-.97-2.17-2.17-2.17Z"/>
      <g>
        <rect class="cls-1" x="253.3" y="602.09" width="58.69" height="1.88"/>
        <path class="cls-1" d="M312.25,604.24h-59.21v-2.4h59.21v2.4ZM253.56,603.72h58.17v-1.37h-58.17v1.37Z"/>
      </g>
      <g>
        <rect class="cls-1" x="259.25" y="635.09" width="103.25" height="1.62"/>
        <path class="cls-1" d="M362.76,636.97h-103.77v-2.13h103.77v2.13ZM259.51,636.45h102.74v-1.1h-102.74v1.1Z"/>
      </g>
      <circle class="cls-1" cx="391.98" cy="458.62" r="4.06"/>
      <circle class="cls-1" cx="270.11" cy="473.14" r="4.06"/>
      <circle class="cls-1" cx="260.37" cy="444.74" r="4.06"/>
      <circle class="cls-1" cx="202.71" cy="554.7" r="4.06"/>
      <circle class="cls-1" cx="218.19" cy="539.26" r="4.06"/>
      <circle class="cls-1" cx="364.11" cy="635.79" r="4.06"/>
      <circle class="cls-1" cx="385.68" cy="630.5" r="4.06"/>
    </g>
  </g>
  <g>
    <path class="cls-1" d="M533.32,600.12v-63.34h21.72c6.58,0,12.34,1.34,17.31,4.03,4.96,2.69,8.83,6.4,11.61,11.15,2.77,4.75,4.16,10.25,4.16,16.49,0,4.7-.79,9-2.38,12.89-1.58,3.89-3.84,7.23-6.76,10.02-2.93,2.79-6.41,4.95-10.45,6.47-4.04,1.52-8.54,2.28-13.48,2.28h-21.72ZM548.34,586.14h5.93c2.72,0,5.17-.38,7.38-1.13,2.2-.75,4.11-1.88,5.72-3.39,1.61-1.51,2.85-3.36,3.71-5.57.86-2.2,1.29-4.73,1.29-7.6,0-3.83-.75-7.06-2.26-9.68-1.51-2.62-3.63-4.61-6.36-5.97-2.73-1.36-5.89-2.04-9.48-2.04h-5.93v35.38Z"/>
    <path class="cls-1" d="M631.55,601.48c-4.86,0-9.35-.84-13.48-2.51-4.13-1.67-7.71-4-10.75-6.99s-5.38-6.48-7.06-10.5c-1.67-4.01-2.51-8.35-2.51-13.03s.84-9.06,2.51-13.08c1.67-4.01,4.03-7.51,7.06-10.5,3.03-2.99,6.61-5.31,10.75-6.97,4.13-1.66,8.63-2.49,13.48-2.49s9.34.84,13.46,2.53c4.12,1.69,7.7,4.04,10.75,7.06,3.05,3.02,5.41,6.52,7.08,10.52,1.67,4,2.51,8.3,2.51,12.92s-.84,9.02-2.51,13.03c-1.67,4.01-4.03,7.51-7.08,10.5-3.05,2.99-6.63,5.32-10.75,6.99-4.12,1.67-8.6,2.51-13.46,2.51ZM631.55,587.36c2.59,0,4.99-.44,7.19-1.31,2.2-.87,4.12-2.14,5.75-3.8,1.63-1.66,2.89-3.66,3.78-5.99.89-2.34,1.33-4.94,1.33-7.8,0-3.83-.78-7.16-2.35-10-1.57-2.84-3.71-5.03-6.43-6.58-2.71-1.55-5.81-2.33-9.27-2.33-2.6,0-4.99.44-7.19,1.31-2.2.88-4.11,2.14-5.72,3.8-1.61,1.66-2.87,3.65-3.78,5.97-.9,2.32-1.36,4.93-1.36,7.83,0,3.83.78,7.16,2.35,10,1.57,2.84,3.72,5.03,6.45,6.58,2.73,1.55,5.81,2.33,9.25,2.33Z"/>
    <path class="cls-1" d="M708.19,601.48c-6.58,0-12.36-1.34-17.35-4.03-4.99-2.68-8.89-6.48-11.7-11.4-2.81-4.92-4.21-10.72-4.21-17.42,0-4.89.82-9.36,2.47-13.41,1.64-4.06,3.97-7.56,6.97-10.52,3-2.96,6.54-5.24,10.61-6.85,4.07-1.61,8.55-2.42,13.44-2.42,5.28,0,9.71.67,13.3,2.01,3.59,1.34,6.83,3.23,9.73,5.68l-7.51,12.31c-1.78-1.81-3.9-3.16-6.36-4.05s-5.18-1.34-8.17-1.34-5.59.43-7.9,1.29-4.27,2.09-5.88,3.69c-1.61,1.6-2.84,3.53-3.69,5.79-.85,2.26-1.27,4.81-1.27,7.65,0,3.83.76,7.12,2.28,9.86,1.52,2.74,3.7,4.85,6.54,6.31,2.83,1.46,6.23,2.19,10.18,2.19,2.84,0,5.65-.43,8.44-1.29,2.79-.86,5.44-2.25,7.94-4.19l6.88,12.62c-2.93,2.26-6.42,4.08-10.5,5.45-4.07,1.37-8.82,2.06-14.25,2.06Z"/>
    <path class="cls-1" d="M754.83,600.12v-49.63h-16.88v-13.71h48.86v13.71h-16.88v49.63h-15.11Z"/>
    <path class="cls-1" d="M825.23,601.48c-4.86,0-9.35-.84-13.48-2.51-4.13-1.67-7.71-4-10.75-6.99s-5.38-6.48-7.06-10.5c-1.67-4.01-2.51-8.35-2.51-13.03s.84-9.06,2.51-13.08c1.67-4.01,4.03-7.51,7.06-10.5,3.03-2.99,6.61-5.31,10.75-6.97,4.13-1.66,8.63-2.49,13.48-2.49s9.34.84,13.46,2.53c4.12,1.69,7.7,4.04,10.75,7.06,3.05,3.02,5.41,6.52,7.08,10.52,1.67,4,2.51,8.3,2.51,12.92s-.84,9.02-2.51,13.03c-1.67,4.01-4.03,7.51-7.08,10.5-3.05,2.99-6.63,5.32-10.75,6.99-4.12,1.67-8.6,2.51-13.46,2.51ZM825.23,587.36c2.59,0,4.99-.44,7.19-1.31,2.2-.87,4.12-2.14,5.75-3.8,1.63-1.66,2.89-3.66,3.78-5.99.89-2.34,1.33-4.94,1.33-7.8,0-3.83-.78-7.16-2.35-10-1.57-2.84-3.71-5.03-6.43-6.58-2.71-1.55-5.81-2.33-9.27-2.33-2.6,0-4.99.44-7.19,1.31-2.2.88-4.11,2.14-5.72,3.8-1.61,1.66-2.87,3.65-3.78,5.97s-1.36,4.93-1.36,7.83c0,3.83.78,7.16,2.35,10,1.57,2.84,3.72,5.03,6.45,6.58,2.73,1.55,5.81,2.33,9.25,2.33Z"/>
    <path class="cls-1" d="M871.65,600.12v-63.34h25.7c4.7,0,8.81.77,12.33,2.31,3.51,1.54,6.23,3.75,8.14,6.63,1.92,2.88,2.87,6.36,2.87,10.43,0,3.11-.59,5.84-1.76,8.19-1.18,2.35-2.79,4.32-4.84,5.9-2.05,1.58-4.37,2.75-6.97,3.51l17.06,26.38h-17.83l-14.12-23.3h-5.57v23.3h-15.02ZM886.67,564.79h8.87c3.14,0,5.59-.62,7.35-1.86,1.76-1.24,2.65-3.18,2.65-5.84s-.84-4.76-2.51-6.04c-1.67-1.28-4.07-1.92-7.17-1.92h-9.18v15.65Z"/>
  </g>
</svg>