<svg width="36" height="36" viewBox="0 0 36 36" fill="none" xmlns="http://www.w3.org/2000/svg">
<g clip-path="url(#clip0_1_330)">
<g clip-path="url(#clip1_1_330)">
<path d="M25.7402 10.2617V7.26172C25.7402 6.43372 26.4122 5.76172 27.2402 5.76172H30.2402C31.0682 5.76172 31.7402 6.43372 31.7402 7.26172V10.2617" stroke="white" stroke-linecap="round" stroke-linejoin="round"/>
<path d="M25.7402 17.0117V21.5117" stroke="white" stroke-linecap="round" stroke-linejoin="round"/>
<path d="M27.9902 19.2617H23.4902" stroke="white" stroke-linecap="round" stroke-linejoin="round"/>
<path d="M12.9902 19.2617H8.49023" stroke="white" stroke-linecap="round" stroke-linejoin="round"/>
<path d="M4.74023 10.2617V7.26172C4.74023 6.43372 5.41223 5.76172 6.24023 5.76172H9.24023C10.0683 5.76172 10.7403 6.43372 10.7403 7.26172V10.2617" stroke="white" stroke-linecap="round" stroke-linejoin="round"/>
<path fill-rule="evenodd" clip-rule="evenodd" d="M25.7403 10.2617H31.7403C32.5683 10.2617 33.2403 10.9337 33.2403 11.7617V26.7617C33.2403 28.4192 31.8978 29.7617 30.2403 29.7617H6.24023C4.58273 29.7617 3.24023 28.4192 3.24023 26.7617V11.7617C3.24023 10.9337 3.91223 10.2617 4.74023 10.2617H10.7403L13.3008 7.70122C13.5828 7.41922 13.9638 7.26172 14.3613 7.26172H22.1193C22.5168 7.26172 22.8993 7.41922 23.1798 7.70122L25.7403 10.2617Z" stroke="white" stroke-linecap="round" stroke-linejoin="round"/>
</g>
</g>
<defs>
<clipPath id="clip0_1_330">
<rect width="36" height="36" fill="white"/>
</clipPath>
<clipPath id="clip1_1_330">
<rect width="36" height="36" fill="white"/>
</clipPath>
</defs>
</svg>
